<?xml version="1.0" encoding="UTF-8"?>
<svg id="Layer_2" data-name="Layer 2" xmlns="http://www.w3.org/2000/svg" viewBox="0 0 985.8 415.5">
  <defs>
    <style>
      .cls-1 {
        fill: #0f172a;
      }

      .cls-1, .cls-2, .cls-3, .cls-4, .cls-5 {
        stroke-width: 0px;
      }

      .cls-2 {
        fill: #f97316;
      }

      .cls-3 {
        fill: #1e293b;
      }

      .cls-4 {
        fill: #ea580c;
      }

      .cls-5 {
        fill: #e2e8f0;
      }
    </style>
  </defs>
  <g id="Layer_2-2" data-name="Layer 2">
    <g>
      <g>
        <path class="cls-5" d="m351.71,325.97c-.45-2.19-1.13-4.29-2.02-6.3.43-2.19.72-4.45.89-6.78,12.35-24.79,19.29-52.75,19.29-82.32,0-50.38-20.15-96.06-52.83-129.41.23-1.96.31-3.95.22-5.95-.45-9.7-4.64-18.65-11.81-25.19-7.18-6.56-16.48-9.92-26.18-9.47-4.55.21-8.96,1.25-13.04,3.06-.57-.22-1.14-.43-1.68-.63l-.41-.15c-.77-.28-1.54-.57-2.32-.84-.06-.02-.13-.04-.19-.06-.04-.01-.08-.03-.12-.04-.82-.29-1.78-.61-2.77-.94-22.6-9.85-47.56-15.31-73.79-15.31-33.94,0-65.74,9.14-93.08,25.1-11.38-1.71-21.82-1.23-31.11,1.45-8.84,2.55-16.47,7-22.69,13.21-1,1-1.97,2.05-2.88,3.13-8.08,9.58-12.5,22.13-12.79,36.31-.02.77-.02,1.55-.01,2.32.04,4.17.43,8.55,1.16,13.04C8.55,166.92,0,197.75,0,230.57c0,102.14,82.8,184.94,184.94,184.94,30.27,0,58.85-7.27,84.07-20.17,2.96,1.74,6.19,3,9.61,3.71,6.43,1.34,12.65,2.02,18.49,2.02,20.88,0,33.8-8.53,40.95-15.68,6.22-6.22,10.66-13.85,13.21-22.68,3.12-10.8,3.27-23.15.45-36.72,0,0,0,0,0,0Z"/>
        <g>
          <g>
            <g>
              <g>
                <path class="cls-1" d="m47.13,146.6c-1.54-1.54-2.67-3.54-3.15-5.84-4.7-22.58,1.88-34.88,8.22-41.22,6.34-6.34,18.63-12.91,41.2-8.23,6.27,1.3,10.31,7.45,9.01,13.72-1.3,6.28-7.45,10.31-13.72,9.01-9.55-1.98-16.87-1.29-20.07,1.91-3.2,3.2-3.9,10.52-1.91,20.08,1.31,6.28-2.72,12.42-9,13.73-3.98.83-7.91-.49-10.58-3.16Z"/>
                <path class="cls-1" d="m55.32,155.81c-4.57,0-8.99-1.8-12.3-5.11h0c-2.4-2.4-4.03-5.43-4.72-8.76-5.23-25.11,2.45-39.15,9.8-46.51,7.35-7.35,21.38-15.01,46.48-9.8,9.4,1.95,15.46,11.19,13.51,20.58-1.95,9.4-11.19,15.46-20.58,13.51-9.82-2.04-14-.45-14.78.33-.79.79-2.38,4.97-.34,14.8,1.96,9.4-4.1,18.63-13.5,20.59-1.19.25-2.38.37-3.57.37Zm-4.09-13.32c1.39,1.39,3.37,1.99,5.3,1.59,3.13-.65,5.15-3.73,4.5-6.86-1.72-8.26-2.51-19.37,3.49-25.37,5.99-5.99,17.09-5.21,25.35-3.49,3.13.65,6.21-1.37,6.86-4.5.65-3.13-1.37-6.21-4.5-6.86-20.03-4.16-30.59,1.32-35.91,6.65-5.33,5.33-10.82,15.9-6.65,35.94.23,1.11.77,2.12,1.57,2.91Z"/>
              </g>
              <g>
                <path class="cls-1" d="m276.85,376.32c-2.67-2.67-3.99-6.6-3.16-10.58,1.31-6.28,7.45-10.3,13.73-9,9.56,1.99,16.88,1.29,20.08-1.91,3.2-3.2,3.89-10.51,1.91-20.07-1.3-6.28,2.73-12.42,9.01-13.72,6.28-1.3,12.42,2.73,13.72,9.01,4.68,22.57-1.89,34.86-8.23,41.2-6.35,6.35-18.65,12.92-41.22,8.22-2.3-.48-4.29-1.6-5.84-3.15Z"/>
                <path class="cls-1" d="m297.1,386.87c-4.65,0-9.83-.52-15.6-1.72-3.33-.69-6.36-2.33-8.76-4.72-4.17-4.17-5.94-10.1-4.74-15.87.95-4.55,3.61-8.46,7.5-11.01,3.89-2.55,8.53-3.43,13.09-2.48,9.82,2.04,14.01.45,14.8-.33.78-.78,2.37-4.97.33-14.78-1.95-9.4,4.11-18.63,13.51-20.58,9.39-1.95,18.63,4.11,20.58,13.5,5.21,25.11-2.46,39.14-9.8,46.48-5.67,5.67-15.3,11.52-30.91,11.52Zm-12.07-24.57c-1.12,0-2.21.32-3.17.95-1.3.85-2.18,2.15-2.5,3.67-.4,1.92.19,3.9,1.58,5.3.79.79,1.8,1.34,2.92,1.57,20.03,4.17,30.6-1.31,35.94-6.65,5.33-5.33,10.8-15.88,6.65-35.91-.65-3.13-3.73-5.15-6.86-4.5-3.13.65-5.15,3.73-4.5,6.86,1.71,8.26,2.5,19.36-3.49,25.35-6,6-17.11,5.21-25.37,3.49-.4-.08-.8-.12-1.2-.12Z"/>
              </g>
              <g>
                <g>
                  <path class="cls-3" d="m320.4,325.66l-27.28,27.28c-46.41,46.41-121.64,46.41-168.05,0l-54.56-54.56c-46.41-46.41-46.41-121.64,0-168.05l27.28-27.28c-20.39,20.39,12.89,86.76,74.37,148.23,61.47,61.47,127.84,94.77,148.23,74.37Z"/>
                  <path class="cls-1" d="m209.09,393.55c-33.29,0-64.59-12.96-88.13-36.5l-54.56-54.56c-23.54-23.54-36.5-54.84-36.5-88.13s12.96-64.59,36.5-88.13l27.28-27.28c2.27-2.26,5.94-2.27,8.21,0,1.13,1.13,1.7,2.62,1.7,4.1s-.57,2.97-1.7,4.1c-7.72,7.72-4.89,27.16,7.57,52,13.78,27.46,37.5,58.72,66.81,88.02,63.17,63.17,124.5,89.9,140.03,74.37,2.27-2.27,5.94-2.27,8.21,0,2.27,2.27,2.27,5.94,0,8.21l-27.28,27.28c-23.54,23.54-54.84,36.5-88.13,36.5ZM86,123.05l-11.39,11.39c-21.35,21.35-33.1,49.73-33.1,79.92s11.76,58.57,33.1,79.92l54.56,54.56c44.07,44.07,115.77,44.07,159.84,0l11.39-11.39c-11.29-.62-25.17-4.99-41.32-13.09-28.54-14.32-60.87-38.81-91.02-68.97-30.16-30.16-54.65-62.49-68.97-91.02-8.1-16.14-12.47-30.03-13.09-41.31Z"/>
                </g>
                <path class="cls-1" d="m244.3,309.45c-28.4,25.61-72.32,24.74-99.66-2.6l-54.56-54.56c-28.23-28.23-28.22-74.16.01-102.39l6.36-6.36c-6.41-18.29-6.42-32.72,1.34-40.49l-27.28,27.28c-46.41,46.41-46.41,121.64,0,168.05l54.55,54.55c46.41,46.41,121.64,46.41,168.05,0l27.28-27.28c-12.32,12.32-41.42,5.05-76.1-16.21Z"/>
                <g>
                  <ellipse class="cls-1" cx="209.09" cy="214.35" rx="52.23" ry="157.41" transform="translate(-90.33 210.64) rotate(-45)"/>
                  <path class="cls-1" d="m303.11,341.83c-11.16,0-26.07-3.6-45.98-13.59-28.94-14.52-61.67-39.31-92.15-69.78-30.48-30.48-55.26-63.21-69.79-92.15-20.72-41.3-13.93-61.1-4.59-70.45,9.34-9.34,29.15-16.13,70.45,4.59,28.94,14.52,61.67,39.3,92.15,69.79,30.48,30.48,55.26,63.2,69.78,92.15,20.72,41.3,13.93,61.11,4.59,70.45h0s0,0,0,0c-4.84,4.84-12.49,8.99-24.47,8.99ZM115,107.11c-4.55,0-7.96,1.05-10.03,3.12-12.13,12.13,10.81,70.31,74.37,133.87,28.98,28.98,59.84,52.42,86.89,65.99,27.21,13.65,42.31,13.05,46.98,8.39h0c4.67-4.67,5.27-19.77-8.38-46.98-13.57-27.05-37.01-57.91-65.99-86.89-52.71-52.71-101.73-77.49-123.85-77.49Z"/>
                </g>
                <g>
                  <path class="cls-4" d="m278.86,91.74c-36.3,0-69.38,13.76-94.32,36.38-23.6,21.39-39.89,50.72-44.67,83.76-25.06-31.59-40.91-61.61-43.74-82.57h0s.03-.06.04-.07c.08-.1.17-.2.25-.31.48-.64.98-1.3,1.47-1.93,1.59-2.04,3.24-4.02,4.95-5.97.57-.67,1.17-1.34,1.77-2.01,3.06-3.37,6.27-6.58,9.64-9.64.67-.6,1.34-1.19,2.01-1.77,1.9-1.68,3.86-3.3,5.87-4.86.78-.61,1.59-1.23,2.4-1.84.01-.01.04-.03.07-.04.82-.63,1.68-1.24,2.53-1.84.11-.1.22-.18.35-.27.77-.54,1.55-1.08,2.33-1.61.17-.13.35-.25.53-.36.74-.5,1.49-1.01,2.26-1.49.18-.13.36-.24.56-.35.87-.56,1.75-1.12,2.64-1.65.89-.54,1.82-1.09,2.72-1.62.14-.08.28-.17.42-.24.82-.47,1.66-.94,2.49-1.4,1.24-.67,2.49-1.33,3.76-1.97.8-.41,1.61-.81,2.42-1.2.8-.38,1.59-.75,2.39-1.12.67-.32,1.36-.63,2.04-.92.35-.15.7-.31,1.05-.46.61-.27,1.23-.53,1.86-.78.56-.24,1.13-.46,1.69-.68.89-.36,1.79-.71,2.68-1.03.94-.36,1.9-.7,2.85-1.03,1.08-.38,2.15-.74,3.23-1.09,1.02-.32,2.04-.64,3.06-.95.14-.06.28-.1.42-.13.85-.24,1.7-.49,2.56-.73.28-.08.57-.17.85-.22.98-.27,1.94-.5,2.91-.74,1.1-.28,2.21-.53,3.31-.77,1.1-.24,2.21-.48,3.31-.68,1.1-.21,2.21-.42,3.33-.6,1.1-.18,2.22-.36,3.34-.52,1.06-.17,2.14-.31,3.21-.43.17-.03.35-.06.52-.06.94-.11,1.87-.21,2.79-.31.18-.01.36-.04.54-.04.99-.1,2-.18,2.99-.25,1.12-.08,2.24-.15,3.37-.2,1.12-.06,2.24-.1,3.37-.13,1.12-.03,2.25-.04,3.37-.04s2.25.01,3.37.04c1.13.03,2.25.07,3.37.13,1.13.04,2.25.11,3.37.2.98.07,1.94.15,2.92.24.27.02.54.04.81.08.81.14,1.64.22,2.46.27.25.01.49.04.72.08,1.05.13,2.1.27,3.14.42,1.12.15,2.24.34,3.34.52,1.12.18,2.22.39,3.33.6,1.1.21,2.21.45,3.31.68,1.1.24,2.21.49,3.3.77.98.24,1.94.47,2.91.74.31.07.6.14.89.24.75.21,1.49.42,2.24.64.35.08.68.18,1.02.29.82.25,1.65.5,2.47.77.18.04.38.11.56.18.96.31,1.94.64,2.91.98.04,0,.08.01.13.04.84.29,1.66.6,2.5.91.74.27,1.47.54,2.19.84.13.04.25.08.38.15.82.31,1.63.64,2.44.99.38.15.75.31,1.13.46.63.28,1.24.54,1.86.82.42.18.84.36,1.24.56.87.39,1.73.8,2.58,1.22.88.42,1.75.85,2.61,1.29.34.17.67.34,1.01.52.82.42,1.63.85,2.44,1.3.99.53,1.97,1.09,2.95,1.63.11.07.21.13.32.2Z"/>
                  <path class="cls-2" d="m139.88,217.68c-1.74,0-3.43-.79-4.55-2.2-25.58-32.25-41.97-63.37-44.95-85.4-.03-.26-.05-.52-.05-.78,0-1.21.38-2.39,1.07-3.37.11-.16.23-.32.36-.47h0c.5-.67,1.03-1.36,1.55-2.03,1.63-2.09,3.37-4.18,5.17-6.23.55-.64,1.18-1.35,1.81-2.06,3.2-3.52,6.57-6.89,10.06-10.06.72-.64,1.41-1.25,2.09-1.85,1.96-1.73,4.02-3.44,6.12-5.07.79-.62,1.62-1.25,2.46-1.89h0c.07-.05.14-.1.21-.15.77-.59,1.57-1.16,2.36-1.72.19-.15.38-.29.58-.43.75-.53,1.51-1.05,2.28-1.57.23-.17.47-.33.72-.49.73-.5,1.48-.99,2.24-1.48.24-.16.48-.31.73-.46.89-.57,1.79-1.14,2.71-1.69.86-.53,1.82-1.09,2.76-1.64.15-.09.35-.21.56-.32.6-.34,1.2-.68,1.8-1.01l.64-.36c1.37-.74,2.66-1.42,3.97-2.08.82-.42,1.67-.84,2.51-1.25l.2-.1c.77-.36,1.53-.72,2.3-1.07.65-.31,1.41-.65,2.16-.98l1-.44c.7-.3,1.36-.59,2.04-.86.38-.16.87-.36,1.37-.56l.33-.13c.93-.38,1.9-.76,2.87-1.11.76-.3,1.68-.62,2.59-.94l.29-.1c1.13-.4,2.25-.77,3.37-1.14,1.03-.33,2.02-.64,3.01-.94.28-.1.55-.18.83-.25l2.43-.69c.29-.09.67-.19,1.05-.28.97-.26,1.93-.5,2.89-.73,1.13-.29,2.31-.55,3.48-.81,1.15-.25,2.3-.49,3.45-.71,1.21-.23,2.33-.44,3.48-.63,1.15-.19,2.32-.38,3.48-.54.98-.16,2.09-.3,3.2-.43.25-.04.53-.08.85-.1.8-.09,1.6-.18,2.38-.26l.26-.03c.06,0,.12-.01.18-.02.2-.02.39-.04.58-.05.99-.1,1.99-.18,2.97-.25,1.17-.09,2.36-.16,3.56-.21,1.09-.06,2.26-.1,3.44-.13,2.34-.06,4.7-.06,7.02,0,1.18.03,2.34.07,3.51.13,1.13.04,2.32.12,3.51.2.92.07,1.84.14,2.78.22l.2.02c.39.03.85.07,1.32.15.49.09,1.07.15,1.78.19.42.02.82.07,1.23.13,1.05.13,2.11.27,3.16.42,1.11.15,2.28.34,3.44.53,1.13.18,2.26.4,3.39.61,1.23.23,2.38.48,3.53.73,1.17.25,2.35.52,3.52.82.92.22,1.9.46,2.88.73.39.09.77.19,1.15.31.71.2,1.4.39,2.1.6.43.11.84.23,1.25.36.77.24,1.55.47,2.32.72.33.09.62.19.86.28.95.31,1.92.64,2.86.97.06.02.12.04.18.06h0c.71.25,1.42.51,2.13.77l.45.17c.72.26,1.47.54,2.22.84.17.06.39.14.64.26.83.31,1.64.65,2.46,1l1.03.42c.05.02.11.04.16.07l.64.28c.43.19.85.37,1.27.56.43.19.91.39,1.37.62.79.36,1.71.79,2.62,1.23.85.41,1.75.86,2.65,1.31.36.18.73.37,1.1.57.86.44,1.71.89,2.55,1.36.68.36,1.42.78,2.16,1.19l.81.45c.09.05.17.1.26.15l.3.18c2.2,1.37,3.23,4.03,2.52,6.52-.71,2.49-2.99,4.21-5.58,4.21-33.51,0-65.62,12.39-90.42,34.88-23.16,21-38.37,49.51-42.82,80.29-.33,2.29-1.99,4.17-4.23,4.77-.5.14-1.01.2-1.51.2Zm-37.63-86.82c3.13,17.6,15.4,41.54,34.37,67.23,6.81-28.43,22.15-54.44,44.03-74.26,21.42-19.43,47.87-31.92,76.11-36.21-.34-.13-.68-.26-1.02-.38l-.5-.18c-.64-.24-1.29-.47-1.93-.7-.05-.01-.09-.03-.14-.05-.91-.32-1.84-.64-2.76-.93-.11-.03-.21-.07-.32-.11-.09-.02-.17-.05-.26-.08-.8-.26-1.59-.5-2.39-.74-.05-.02-.1-.03-.15-.05-.18-.06-.35-.11-.54-.16-.11-.03-.21-.05-.32-.09-.7-.21-1.4-.41-2.11-.61-.09-.03-.19-.05-.28-.09-.11-.03-.23-.06-.34-.08-.09-.02-.17-.04-.26-.06-.91-.25-1.81-.47-2.73-.7-1.09-.28-2.12-.51-3.15-.73-1.06-.23-2.12-.46-3.17-.66-1.1-.21-2.13-.4-3.17-.57-1.06-.17-2.13-.35-3.19-.49-1.05-.15-2.05-.29-3.05-.41-.11-.01-.21-.03-.32-.05-1.2-.07-2.23-.18-3.18-.35l-.5-.03c-.88-.08-1.75-.15-2.64-.21-1.06-.08-2.11-.15-3.17-.18-1.14-.06-2.21-.1-3.29-.12-2.14-.05-4.3-.05-6.44,0-1.09.03-2.16.07-3.22.12-1.13.04-2.18.11-3.22.19-.96.07-1.92.15-2.85.24-.12.01-.24.02-.36.02l-.4.04c-.81.09-1.63.17-2.45.27-.11.01-.22.02-.34.03-.07.01-.16.02-.19.03-1,.12-2,.25-2.98.4-1.18.16-2.25.34-3.3.51-1.05.17-2.08.37-3.11.56-1.13.21-2.19.44-3.24.67-1.04.22-2.07.46-3.11.72-.96.24-1.88.46-2.81.72-.13.03-.25.06-.38.09-.1.02-.22.06-.33.09l-2.66.76s-.07.02-.11.03c-.06.02-.13.04-.2.06-1,.3-1.99.61-2.99.93-.98.32-2.02.67-3.05,1.03l-.29.1c-.8.28-1.6.56-2.38.87-.95.34-1.77.67-2.59,1l-.37.15c-.41.16-.83.33-1.23.5-.69.28-1.26.52-1.82.77l-1.02.45c-.66.28-1.27.56-1.87.84-.81.37-1.53.71-2.25,1.05l-.16.08c-.73.35-1.51.74-2.27,1.13-1.24.63-2.43,1.26-3.63,1.9l-.59.33c-.59.33-1.18.66-1.76.99-.09.05-.19.11-.29.16-.97.58-1.86,1.1-2.73,1.63-.89.53-1.71,1.05-2.52,1.57-.09.06-.17.11-.26.16l-.14.08c-.06.04-.12.09-.19.13-.72.46-1.43.93-2.12,1.4-.07.05-.14.09-.21.14-.08.06-.25.18-.32.23-.75.51-1.5,1.02-2.23,1.54,0,0-.01,0-.02.01-.11.09-.22.18-.34.26-.79.56-1.59,1.13-2.36,1.72-.09.07-.18.13-.27.19-.72.55-1.44,1.09-2.14,1.64-1.93,1.5-3.82,3.06-5.61,4.65-.67.59-1.33,1.16-1.98,1.75-3.19,2.9-6.3,6.01-9.22,9.22-.54.6-1.11,1.24-1.65,1.88-1.71,1.94-3.3,3.86-4.79,5.77-.07.09-.15.19-.22.28Zm28.46-27.28s0,0,0,0c0,0,0,0,0,0Zm.25-.19s0,0,0,0c0,0,0,0,0,0Zm119.19-18.12s.11.03.16.04c-.05-.01-.11-.03-.16-.04Zm-80.12-.92s0,0,0,0c0,0,0,0,0,0Zm22.2-4.64h0,0Zm.02,0h-.02.02Zm0,0h0,0Zm0,0h0,0Z"/>
                </g>
                <g>
                  <path class="cls-2" d="m220.85,156.08c-7.85,17.51-12.21,36.91-12.21,57.34,0,35.03,12.83,67.08,34.06,91.68-21.92-13.4-46.15-32.62-69.63-56.11-12.31-12.31-23.44-24.83-33.2-37.11,4.78-33.04,21.07-62.37,44.67-83.76,24.94-22.62,58.02-36.38,94.32-36.38-25.48,14.75-45.91,37.29-58.01,64.34Z"/>
                  <path class="cls-2" d="m242.7,310.9c-1.04,0-2.08-.28-3.02-.85-23.14-14.15-47.59-33.84-70.71-56.96-12.17-12.17-23.49-24.82-33.64-37.6-.99-1.25-1.43-2.86-1.2-4.44,4.84-33.44,21.35-64.42,46.51-87.23,26.93-24.43,61.82-37.88,98.22-37.88,2.63,0,4.92,1.76,5.6,4.3.68,2.54-.43,5.21-2.7,6.53-24.39,14.12-44.14,36.03-55.62,61.68,0,0,0,0,0,0-7.77,17.31-11.7,35.81-11.7,54.96,0,32.28,11.6,63.49,32.65,87.89,1.87,2.16,1.88,5.37.03,7.55-1.14,1.34-2.77,2.05-4.43,2.05Zm-96.7-100.65c9.46,11.76,19.94,23.41,31.18,34.64,14.1,14.1,28.68,26.87,43.11,37.8-11.37-21.14-17.44-44.93-17.44-69.27,0-20.8,4.28-40.89,12.72-59.71h0c9.47-21.16,24.11-39.97,42.21-54.51-25.72,4.06-49.79,15.51-69.32,33.22-22.54,20.43-37.55,47.99-42.44,77.82Zm74.85-54.17h.01-.01Z"/>
                </g>
                <path class="cls-1" d="m303.11,341.83c-11.16,0-26.07-3.6-45.98-13.59-28.94-14.52-61.67-39.31-92.15-69.78-30.48-30.48-55.26-63.21-69.79-92.15-20.72-41.3-13.93-61.1-4.59-70.45,3.97-3.97,10.4-3.97,14.36,0,3.97,3.97,3.97,10.4,0,14.36-12.13,12.13,10.81,70.31,74.37,133.87,28.98,28.98,59.84,52.42,86.89,65.99,27.21,13.65,42.31,13.05,46.98,8.39,3.97-3.97,10.4-3.97,14.36,0,3.97,3.97,3.97,10.4,0,14.36-4.84,4.84-12.49,8.99-24.47,8.99Z"/>
              </g>
              <g>
                <path class="cls-3" d="m47.13,146.6c-1.54-1.54-2.67-3.54-3.15-5.84-4.7-22.58,1.88-34.88,8.22-41.22,4.53-4.53,11.88-4.53,16.41,0,4.53,4.53,4.53,11.88,0,16.41-3.2,3.2-3.9,10.52-1.91,20.08,1.31,6.27-2.72,12.42-9,13.73-3.98.83-7.91-.49-10.58-3.16Z"/>
                <path class="cls-1" d="m55.32,155.81c-4.57,0-8.99-1.8-12.3-5.11h0c-2.4-2.4-4.03-5.43-4.72-8.76-5.23-25.11,2.45-39.15,9.8-46.51,3.29-3.29,7.66-5.1,12.31-5.1s9.02,1.81,12.31,5.1c3.29,3.29,5.1,7.66,5.1,12.31s-1.81,9.02-5.1,12.31c-.79.79-2.38,4.97-.33,14.8,1.96,9.4-4.1,18.63-13.5,20.59-1.19.25-2.38.37-3.57.37Zm-4.09-13.32c1.39,1.39,3.37,1.99,5.3,1.59,3.13-.65,5.15-3.73,4.5-6.86-1.72-8.26-2.51-19.37,3.49-25.37,1.1-1.1,1.7-2.55,1.7-4.1s-.6-3.01-1.7-4.1c-2.19-2.19-6.01-2.19-8.21,0-5.33,5.33-10.82,15.9-6.65,35.94.23,1.11.77,2.12,1.57,2.91Z"/>
              </g>
              <g>
                <path class="cls-3" d="m276.85,376.32c-2.67-2.67-3.99-6.6-3.16-10.58,1.31-6.28,7.45-10.3,13.73-9,9.56,1.99,16.88,1.29,20.08-1.91,4.53-4.53,11.88-4.53,16.41,0s4.53,11.88,0,16.41c-6.35,6.35-18.65,12.92-41.22,8.22-2.3-.48-4.29-1.6-5.84-3.15Z"/>
                <path class="cls-1" d="m297.1,386.87c-4.65,0-9.83-.52-15.6-1.72-3.33-.69-6.36-2.33-8.76-4.72-4.17-4.17-5.94-10.1-4.74-15.87.95-4.55,3.61-8.46,7.5-11.01,3.89-2.55,8.53-3.43,13.09-2.48,9.82,2.04,14.01.45,14.8-.33,6.79-6.79,17.83-6.79,24.62,0,6.79,6.79,6.79,17.83,0,24.62-5.67,5.67-15.3,11.52-30.91,11.52Zm-12.07-24.57c-1.12,0-2.21.32-3.17.95-1.3.85-2.18,2.15-2.5,3.67-.4,1.92.19,3.9,1.58,5.3.79.79,1.8,1.34,2.92,1.57,20.03,4.17,30.6-1.31,35.94-6.65,2.26-2.26,2.26-5.94,0-8.21-2.26-2.26-5.94-2.26-8.21,0-6,6-17.11,5.21-25.37,3.49-.4-.08-.8-.12-1.2-.12Z"/>
              </g>
            </g>
            <g>
              <path class="cls-4" d="m297.28,96.12c.42,9.01-6.56,16.68-15.59,17.09-3.67.17-7.11-.89-9.93-2.79h-.02c-3.01,4.48-8.07,7.54-13.9,7.81-5.12.24-9.84-1.73-13.23-5.06-1.88,4.02-5.87,6.87-10.62,7.09-.27.01-.54,0-.79,0v.03c.67,14.43-10.48,26.66-24.92,27.33-1.36.06-2.68.01-4-.12-1.19-.13-2.37-.33-3.5-.61-.11.34-.22.67-.36,1-1.95,5.03-5.99,9.07-11.1,11-.73,10.87-9.51,19.7-20.65,20.22-2.21.1-4.36-.13-6.39-.65-.61.14-1.25.23-1.9.26-.96.04-1.9-.04-2.79-.25-.1,2.69-1.18,5.15-2.91,7.03,1.78,1.86,2.9,4.35,3.03,7.11.24,5.22-3.13,9.75-7.92,11.17.1.42.15.85.17,1.29.2,4.4-3.21,8.14-7.62,8.34-4.41.2-8.14-3.21-8.34-7.61-.13-2.76,1.15-5.25,3.19-6.78-.99-1.57-1.59-3.4-1.69-5.39-.15-3.17,1.05-6.08,3.08-8.2-1.66-1.83-2.74-4.23-2.86-6.89-.19-4.19,2-7.94,5.37-9.93-.04-.25-.07-.5-.08-.77-.17-3.61,1.96-6.79,5.09-8.15-.05-.42-.09-.86-.11-1.29-.51-11.06,7.34-20.57,17.98-22.38,2.03-7.69,8.71-13.57,16.98-14.24-.16-14.01,10.83-25.75,24.93-26.4,6.52-.3,12.59,1.82,17.34,5.55,2.1-3.1,5.6-5.2,9.64-5.39,2.46-.11,4.78.51,6.76,1.65,1.48-7.88,8.23-14.02,16.59-14.41,4.49-.21,8.68,1.27,11.93,3.9,2.82-3.57,7.13-5.95,12.05-6.18,9.03-.42,16.68,6.57,17.09,15.6Z"/>
              <path class="cls-2" d="m141.97,219.22c-7.31,0-13.42-5.77-13.76-13.15-.14-2.92.65-5.75,2.19-8.13-.39-1.31-.62-2.66-.68-4.03-.14-2.98.53-5.94,1.88-8.56-.99-2.04-1.56-4.26-1.66-6.53-.23-5.02,1.78-9.78,5.38-13.09.44-3.52,2.2-6.77,4.87-9.07.32-11.8,8.19-22.08,19.35-25.52,2.93-6.89,8.81-12.1,15.94-14.2,2.11-14.99,14.54-26.62,30.15-27.34,5.88-.27,11.69,1.09,16.79,3.88,2.91-2.22,6.46-3.55,10.19-3.72,1.15-.05,2.28,0,3.4.16,3.73-7.46,11.24-12.52,19.95-12.92,3.98-.19,7.9.64,11.41,2.36,3.57-2.78,7.95-4.42,12.57-4.63,5.93-.27,11.58,1.78,15.96,5.77,4.37,3.99,6.93,9.45,7.2,15.36h0c.27,5.91-1.77,11.57-5.76,15.95-3.99,4.38-9.44,6.94-15.36,7.21-3.03.14-6.01-.33-8.79-1.37-4.06,3.81-9.41,6.13-15.06,6.39-4.32.2-8.56-.8-12.29-2.82-1.99,1.86-4.37,3.25-6.99,4.06-.77,6.6-3.57,12.77-8.13,17.77-5.75,6.31-13.61,10-22.14,10.39-1.41.07-2.83.04-4.31-.09-2.27,3.97-5.59,7.25-9.59,9.47-2.43,12.25-12.93,21.51-25.71,22.1-2.29.1-4.56-.07-6.78-.52-.15.36-.31.72-.48,1.07,1.08,2.12,1.71,4.47,1.82,6.89.29,6.22-2.82,11.93-7.88,15.11-.95,6.39-6.32,11.44-13.02,11.75-.21,0-.43.01-.64.01Zm65.12-118.05c-.31,0-.62,0-.94.02-11,.51-19.52,9.53-19.4,20.54.03,3.05-2.3,5.6-5.34,5.85-5.63.45-10.39,4.44-11.84,9.93-.58,2.2-2.39,3.86-4.63,4.24-7.87,1.35-13.53,8.39-13.16,16.4.01.29.04.58.07.86.31,2.55-1.09,5-3.45,6.02-.84.37-1.66,1.3-1.61,2.56.41,2.38-.69,4.81-2.76,6.04-1.64.97-2.61,2.76-2.52,4.66.07,1.54.78,2.62,1.36,3.26,2.05,2.26,2,5.72-.12,7.92-1.01,1.05-1.53,2.44-1.47,3.9.04.93.31,1.79.8,2.56,1.62,2.56.99,5.93-1.43,7.74-.28.21-.92.81-.87,1.87.06,1.2,1.06,2.13,2.28,2.08,1.21-.06,2.15-1.08,2.09-2.28,0-.15-.02-.21-.02-.24-.7-2.99,1.06-6.01,4-6.88,2.33-.69,3.89-2.89,3.77-5.34-.06-1.27-.57-2.46-1.43-3.37-2.11-2.21-2.14-5.68-.07-7.94.85-.92,1.34-2.1,1.38-3.31.06-1.74.9-3.35,2.28-4.41,1.38-1.05,3.17-1.43,4.85-1.03.37.09.77.12,1.19.1.28-.01.58-.06.88-.12.9-.21,1.84-.19,2.74.04,1.51.39,3.08.55,4.68.48,8.08-.37,14.59-6.74,15.13-14.81.15-2.27,1.62-4.24,3.74-5.04,3.55-1.34,6.37-4.13,7.73-7.66.03-.09.07-.17.11-.26.06-.15.11-.3.16-.46.95-2.88,3.95-4.55,6.9-3.82.84.21,1.77.37,2.77.48,1.03.1,2.07.13,3.08.09,5.43-.25,10.44-2.6,14.1-6.62,3.66-4.01,5.54-9.21,5.29-14.64-.08-1.56.48-3.1,1.54-4.25,1.12-1.21,2.71-1.9,4.35-1.87.13,0,.28,0,.42,0,2.45-.11,4.6-1.55,5.64-3.76.8-1.7,2.37-2.92,4.23-3.25,1.85-.33,3.75.25,5.09,1.57,2.39,2.35,5.56,3.55,8.89,3.4,3.76-.17,7.26-2.14,9.35-5.25,1.03-1.53,2.72-2.48,4.55-2.56,1.23-.05,2.49.29,3.53.99,1.9,1.29,4.13,1.91,6.42,1.8,2.82-.13,5.41-1.35,7.31-3.43,1.9-2.08,2.87-4.78,2.74-7.59h0c-.13-2.82-1.35-5.42-3.43-7.33-2.08-1.9-4.79-2.88-7.6-2.75-3.05.14-5.88,1.59-7.76,3.98-.96,1.22-2.37,2-3.91,2.17-1.55.17-3.09-.28-4.3-1.26-2.25-1.82-5.11-2.75-8.01-2.62-5.55.26-10.13,4.24-11.16,9.68-.35,1.85-1.57,3.41-3.28,4.2-1.71.78-3.69.69-5.32-.24-1.1-.63-2.33-.94-3.59-.88-2.08.1-3.94,1.13-5.1,2.85-.9,1.33-2.32,2.23-3.91,2.48-1.59.25-3.21-.17-4.48-1.17-3.59-2.81-8.01-4.34-12.55-4.34Z"/>
            </g>
          </g>
          <path class="cls-2" d="m178.05,158.85c0,3.73-3.02,6.75-6.75,6.75-3.73,0-6.75-3.02-6.75-6.75s3.02-6.75,6.75-6.75c3.73,0,6.75,3.02,6.75,6.75Z"/>
          <circle class="cls-2" cx="209.09" cy="113.78" r="8.93"/>
          <path class="cls-2" d="m223.72,122.71c0,1.57-1.27,2.85-2.85,2.85s-2.85-1.27-2.85-2.85,1.27-2.85,2.85-2.85,2.85,1.27,2.85,2.85Z"/>
          <path class="cls-2" d="m263.32,96.14c0,2.22-1.8,4.02-4.02,4.02-2.22,0-4.02-1.8-4.02-4.02s1.8-4.02,4.02-4.02,4.02,1.8,4.02,4.02Z"/>
          <circle class="cls-2" cx="125.28" cy="127.34" r="7.47"/>
        </g>
      </g>
      <g>
        <g>
          <path class="cls-2" d="m355.92,22.03c0-1.88.17-4.1.51-6.66.34-2.56.99-5,1.92-7.3.94-2.31,2.22-4.23,3.84-5.76,1.62-1.54,3.71-2.31,6.28-2.31,3.59,0,6.91.64,9.99,1.92,3.07,1.28,4.61,4.14,4.61,8.58,0,2.39-.26,4.7-.77,6.92-.51,2.22-.77,4.53-.77,6.92,0,3.93.94,7.09,2.82,9.48l-.26-.26c2.56,2.22,5.34,3.8,8.33,4.74,2.99.94,6.19,1.41,9.61,1.41,4.44,0,9.01-.68,13.7-2.05,4.7-1.36,9.27-3.2,13.71-5.51,4.44-2.31,8.67-4.91,12.68-7.81,4.01-2.9,7.64-5.89,10.89-8.97,1.54-1.54,2.98-3.16,4.35-4.87,1.36-1.7,2.82-3.41,4.35-5.12,1.19-1.36,2.39-2.22,3.59-2.56,1.19-.34,2.73-.51,4.61-.51,1.54,0,3.16.22,4.87.64,1.7.43,3.28,1.11,4.74,2.05,1.45.94,2.69,2.05,3.71,3.33s1.54,2.86,1.54,4.74c0,4.1-.17,8.5-.51,13.19-.34,4.7-.73,9.48-1.15,14.34-.43,4.87-.9,9.69-1.41,14.47-.51,4.78-.94,9.31-1.28,13.58-2.22,27.5-4.31,54.78-6.28,81.84-1.97,27.07-2.95,54.35-2.95,81.84,2.22.51,4.57,1.75,7.05,3.71,2.47,1.97,3.71,4.14,3.71,6.53,0,1.54-.43,2.73-1.28,3.59-.86.86-1.88,1.54-3.08,2.05-1.2.51-2.52.81-3.97.9-1.45.08-2.69.13-3.71.13-4.78,0-8.71-.85-11.78-2.56-3.07-1.71-5.51-4.06-7.3-7.05-1.79-2.98-2.99-6.4-3.59-10.25-.6-3.84-.9-7.81-.9-11.91s.13-7.94.39-12.04c.26-4.1.47-8.11.64-12.04,1.54-25.95,3.11-51.66,4.74-77.1,1.62-25.44,3.54-51.06,5.76-76.85-8.2,4.96-17.16,9.01-26.9,12.17-9.73,3.16-19.38,4.74-28.94,4.74-4.95,0-10.12-.72-15.5-2.18-5.38-1.45-10.33-3.59-14.86-6.4-4.52-2.82-8.28-6.36-11.27-10.63-2.99-4.27-4.48-9.31-4.48-15.11Z"/>
          <path class="cls-2" d="m492.45,195.19c0-9.73.29-19.42.9-29.07.59-9.65.9-19.34.9-29.08,0-4.1-.26-8.15-.77-12.17-.51-4.01-.77-8.07-.77-12.17,0-2.73,1.03-4.61,3.07-5.64,2.05-1.03,4.18-1.54,6.4-1.54,4.95,0,8.58,1.24,10.89,3.71,2.31,2.48,3.93,5.51,4.87,9.09.94,3.59,1.36,7.43,1.28,11.53-.09,4.1-.13,7.86-.13,11.27,0,9.22-.34,18.36-1.03,27.41-.68,9.05-1.03,18.19-1.03,27.41,0,3.07.08,6.11.26,9.09.17,2.99.42,6.02.77,9.09,2.9-8.2,5.38-16.56,7.43-25.11,2.05-8.54,4.87-16.65,8.45-24.33.85-1.88,1.92-3.33,3.2-4.35,1.28-1.03,3.03-1.54,5.25-1.54,3.07,0,5.46.73,7.17,2.18,1.71,1.45,2.99,3.25,3.84,5.38.85,2.14,1.41,4.48,1.66,7.05.26,2.56.38,5.04.38,7.43.34,7.01,1.28,14.05,2.82,21.13,1.54,7.09,4.52,13.45,8.97,19.08,2.39-20.32,4.05-40.64,5-60.97.94-20.32,1.41-40.81,1.41-61.48,0-1.88-.13-3.97-.38-6.28-.26-2.31-.26-4.48,0-6.53.26-2.05,1.03-3.75,2.31-5.12,1.28-1.36,3.37-2.05,6.28-2.05,5.8,0,10.03,1.66,12.68,5,2.65,3.33,3.97,7.64,3.97,12.94,0,3.93-.04,9.82-.13,17.68-.09,7.86-.3,16.61-.64,26.26-.34,9.65-.73,19.72-1.15,30.23-.43,10.5-.94,20.32-1.54,29.46-.6,9.14-1.32,17.12-2.18,23.95-.85,6.83-1.88,11.36-3.07,13.58-1.37,2.73-3.2,4.96-5.51,6.66-2.3,1.71-5,2.56-8.07,2.56-4.27,0-8.24-1.19-11.91-3.59-3.68-2.39-7.05-5.38-10.12-8.97-3.07-3.59-5.72-7.43-7.94-11.53-2.22-4.1-3.93-7.85-5.12-11.27-1.88,4.44-3.55,9.01-5,13.71-1.45,4.7-3.12,9.26-5,13.71-1.37,2.9-2.9,5.25-4.61,7.04-1.71,1.79-4.27,2.69-7.68,2.69-6.32,0-11.27-1.92-14.86-5.76-3.59-3.84-6.24-8.54-7.94-14.09-1.71-5.55-2.73-11.4-3.07-17.55-.35-6.15-.51-11.53-.51-16.14Z"/>
          <path class="cls-2" d="m643.84,103.49c6.49,0,12.81,1.28,18.96,3.84,6.15,2.56,11.61,6.02,16.39,10.37,4.78,4.36,8.58,9.48,11.4,15.37,2.82,5.89,4.23,12.17,4.23,18.83,0,3.25-.34,5.94-1.02,8.07-.69,2.14-2.99,3.2-6.92,3.2-1.2,0-2.78-.21-4.74-.64-1.96-.43-3.89-1.03-5.76-1.79-1.88-.77-3.55-1.71-5-2.82-1.45-1.11-2.18-2.35-2.18-3.71,0-3.41-.22-6.96-.64-10.63-.43-3.67-1.24-7.21-2.43-10.63-1.2-3.41-2.86-6.49-5-9.22-2.14-2.73-4.91-4.87-8.33-6.4-7.34.68-12.6,3.37-15.75,8.07-3.16,4.7-4.74,10.46-4.74,17.29,0,1.03.04,2.35.13,3.97.08,1.62.21,3.25.39,4.87.17,1.62.38,3.16.64,4.61.26,1.45.55,2.69.9,3.71,1.03,2.73,3.16,5.17,6.4,7.3,3.24,2.14,6.96,4.27,11.14,6.4,4.18,2.14,8.54,4.44,13.06,6.92,4.52,2.48,8.71,5.42,12.55,8.84,3.84,3.42,7,7.43,9.48,12.04,2.47,4.61,3.71,10.08,3.71,16.39,0,4.27-.68,8.28-2.05,12.04-1.37,3.76-3.29,7.09-5.76,9.99-2.48,2.9-5.51,5.21-9.09,6.92-3.59,1.71-7.6,2.56-12.04,2.56-1.37,0-3.42-.26-6.15-.77-2.73-.51-5.47-1.24-8.2-2.18-2.73-.94-5.12-2.13-7.17-3.59-2.05-1.45-3.07-3.03-3.07-4.74,0-1.19.38-2.13,1.15-2.82.77-.68,1.71-1.24,2.82-1.66,1.11-.43,2.26-.73,3.46-.9,1.19-.17,2.22-.26,3.07-.26,2.73,0,5.21.51,7.43,1.54,3.42-1.03,6.1-2.9,8.07-5.64,1.96-2.73,2.95-5.89,2.95-9.48,0-5.29-1.45-9.6-4.35-12.94-2.91-3.33-6.53-6.28-10.89-8.84-4.36-2.56-9.05-5.08-14.09-7.56-5.04-2.47-9.74-5.51-14.09-9.09s-7.98-8.02-10.89-13.32c-2.9-5.29-4.35-12.12-4.35-20.49,0-5.8.68-11.31,2.05-16.52,1.36-5.21,3.5-9.77,6.4-13.7,2.9-3.93,6.66-7.04,11.27-9.35,4.61-2.31,10.16-3.46,16.65-3.46Z"/>
          <path class="cls-2" d="m705.06,195.71c0-13.66.55-27.28,1.67-40.86,1.11-13.58,1.66-27.28,1.66-41.11,0-3.41.51-5.97,1.54-7.68,1.03-1.7,3.5-2.56,7.43-2.56,1.54,0,3.24.3,5.12.9,1.88.6,3.63,1.41,5.25,2.43,1.62,1.03,2.95,2.27,3.97,3.71,1.03,1.45,1.54,3.12,1.54,5,0,14.69-.51,29.29-1.54,43.8-1.02,14.52-1.54,29.2-1.54,44.06v9.22c0,3.07.17,6.15.51,9.22,3.41-1.71,6.79-3.29,10.12-4.74,3.33-1.45,6.79-2.69,10.37-3.71.68-11.78,1.49-23.44,2.43-34.96.94-11.53,2-23.18,3.2-34.97.51-4.44.94-9.13,1.28-14.09.34-4.95,1.11-9.65,2.31-14.09.68-2.56,1.79-4.31,3.33-5.25,1.54-.94,3.5-1.41,5.89-1.41,1.54,0,3.2.26,5,.77,1.79.51,3.5,1.28,5.12,2.31,1.62,1.02,2.94,2.22,3.97,3.59,1.03,1.37,1.54,2.99,1.54,4.87v.77c-1.54,14.86-3.16,29.55-4.87,44.06-1.71,14.52-2.99,29.29-3.84,44.32,2.9-.17,6.19-.04,9.86.38,3.67.43,7.09,1.32,10.25,2.69,3.16,1.37,5.8,3.25,7.94,5.64,2.13,2.39,3.2,5.47,3.2,9.22,0,3.24-1.03,6.19-3.07,8.84-2.05,2.65-4.61,4.87-7.68,6.66-3.07,1.79-6.32,3.2-9.74,4.23-3.42,1.03-6.49,1.54-9.22,1.54-4.96,0-9.52-1.24-13.71-3.71-4.19-2.47-7.47-5.93-9.86-10.37-2.56,1.02-5.04,2.18-7.43,3.46-2.39,1.28-4.87,2.48-7.43,3.59-2.56,1.11-5.12,2.09-7.68,2.95-2.56.86-5.21,1.28-7.94,1.28-3.42,0-6.45-.9-9.09-2.69-2.65-1.79-4.91-4.14-6.79-7.05-1.2-6.66-2.01-13.32-2.43-19.98-.43-6.66-.64-13.41-.64-20.24Zm70.96,31l1.03,4.35c.34,0,.98-.13,1.92-.38.94-.26,1.92-.6,2.94-1.03,1.03-.42,1.96-.85,2.82-1.28.85-.42,1.28-.81,1.28-1.15,0-.51-.68-.81-2.05-.9-1.37-.08-2.22-.13-2.56-.13h-2.69c-.94,0-1.84.17-2.69.51Z"/>
          <path class="cls-2" d="m792.91,145.5c0-6.15,1.07-11.82,3.2-17.04,2.13-5.21,5.08-9.69,8.84-13.45,3.75-3.75,8.24-6.7,13.45-8.84,5.21-2.13,10.89-3.2,17.03-3.2,11.44,0,20.58,2.18,27.41,6.53,6.83,4.36,12.04,10.03,15.62,17.04,3.59,7,5.93,15.03,7.05,24.08,1.11,9.05,1.66,18.19,1.66,27.41,0,7.52-.26,14.9-.77,22.16-.51,7.26-1.03,14.56-1.54,21.9-.34,3.42-.47,7.09-.38,11.02.08,3.93-.3,7.6-1.15,11.01-.68,2.22-1.71,3.68-3.07,4.36-1.37.68-3.07,1.02-5.12,1.02-1.37,0-2.99-.26-4.87-.77-1.88-.51-3.71-1.19-5.51-2.05s-3.29-1.96-4.48-3.33c-1.2-1.36-1.79-2.82-1.79-4.35,0-3.42.13-6.7.38-9.86.26-3.16.55-6.36.9-9.6.68-7.68,1.28-15.33,1.8-22.93.51-7.6.77-15.24.77-22.93,0-3.41-.13-8.2-.38-14.34-.26-6.15-1.03-12.3-2.31-18.44-1.28-6.15-3.25-11.48-5.89-16.01-2.65-4.52-6.45-6.79-11.4-6.79-3.42,0-6.58,1.03-9.48,3.07-2.9,2.05-5.47,4.61-7.68,7.68-2.22,3.07-3.93,6.4-5.12,9.99-1.2,3.59-1.79,6.92-1.79,9.99v2.82c3.08,0,6.02.6,8.84,1.79,2.82,1.2,5.29,2.78,7.43,4.74,2.13,1.97,3.88,4.27,5.25,6.92,1.36,2.65,2.05,5.6,2.05,8.84,0,.85-.04,1.75-.13,2.69-.09.94-.22,1.84-.38,2.69-1.37,7.68-2.43,15.46-3.2,23.31-.77,7.86-1.32,15.8-1.66,23.82-.17,2.91-.17,5.85,0,8.84.17,2.99,0,5.94-.51,8.84-.34,2.22-1.24,3.68-2.69,4.36-1.45.68-3.2,1.02-5.25,1.02-4.44,0-8.41-1.15-11.91-3.46-3.5-2.31-5.25-5.85-5.25-10.63,0-11.44.72-22.75,2.18-33.94,1.45-11.18,2.52-22.5,3.2-33.94-7.17,0-12.85-1.83-17.03-5.51-4.19-3.67-6.28-9.18-6.28-16.52Z"/>
          <path class="cls-2" d="m823.91,61.22c0-1.88.94-3.16,2.82-3.84,1.88-.68,3.59-1.03,5.12-1.03l1.54.26h-.26c2.9.17,5.34.86,7.3,2.05,1.97,1.2,3.5,2.73,4.61,4.61,1.11,1.88,1.96,4.01,2.56,6.4.6,2.39.99,4.78,1.15,7.17,2.9-2.9,5.34-5.98,7.3-9.22,1.97-3.24,4.14-6.49,6.53-9.73.86-1.03,1.84-1.71,2.94-2.05,1.11-.34,2.27-.51,3.46-.51,1.02,0,2.39.22,4.1.64,1.71.43,3.33,1.07,4.87,1.92,1.54.86,2.9,1.79,4.1,2.82,1.2,1.03,1.79,2.22,1.79,3.59,0,.34-.09.77-.26,1.28-.17.51-.34.94-.51,1.28-1.88,3.07-4.14,6.49-6.79,10.25-2.65,3.76-5.55,7.26-8.71,10.5-3.16,3.25-6.57,5.98-10.25,8.2-3.67,2.22-7.56,3.33-11.66,3.33-2.22,0-4.44-.34-6.66-1.02-2.22-.68-4.23-1.67-6.02-2.95-1.79-1.28-3.28-2.86-4.48-4.74-1.19-1.88-1.79-4.01-1.79-6.4,0-1.02.04-2.05.13-3.07.09-1.03.13-2.13.13-3.33,0-3.07-.51-6.1-1.54-9.09-1.03-2.99-1.54-5.42-1.54-7.3Z"/>
          <path class="cls-2" d="m883.08,195.71c0-13.66.55-27.28,1.67-40.86,1.11-13.58,1.66-27.28,1.66-41.11,0-3.41.51-5.97,1.54-7.68,1.03-1.7,3.5-2.56,7.43-2.56,1.54,0,3.24.3,5.12.9,1.88.6,3.63,1.41,5.25,2.43,1.62,1.03,2.95,2.27,3.97,3.71,1.03,1.45,1.54,3.12,1.54,5,0,14.69-.51,29.29-1.54,43.8-1.02,14.52-1.54,29.2-1.54,44.06v9.22c0,3.07.17,6.15.51,9.22,3.41-1.71,6.79-3.29,10.12-4.74,3.33-1.45,6.79-2.69,10.37-3.71.68-11.78,1.49-23.44,2.43-34.96.94-11.53,2-23.18,3.2-34.97.51-4.44.94-9.13,1.28-14.09.34-4.95,1.11-9.65,2.31-14.09.68-2.56,1.79-4.31,3.33-5.25,1.54-.94,3.5-1.41,5.89-1.41,1.54,0,3.2.26,5,.77,1.79.51,3.5,1.28,5.12,2.31,1.62,1.02,2.94,2.22,3.97,3.59,1.03,1.37,1.54,2.99,1.54,4.87v.77c-1.54,14.86-3.16,29.55-4.87,44.06-1.71,14.52-2.99,29.29-3.84,44.32,2.9-.17,6.19-.04,9.86.38,3.67.43,7.09,1.32,10.25,2.69,3.16,1.37,5.8,3.25,7.94,5.64,2.13,2.39,3.2,5.47,3.2,9.22,0,3.24-1.03,6.19-3.07,8.84-2.05,2.65-4.61,4.87-7.68,6.66-3.07,1.79-6.32,3.2-9.74,4.23-3.42,1.03-6.49,1.54-9.22,1.54-4.96,0-9.52-1.24-13.71-3.71-4.19-2.47-7.47-5.93-9.86-10.37-2.56,1.02-5.04,2.18-7.43,3.46-2.39,1.28-4.87,2.48-7.43,3.59-2.56,1.11-5.12,2.09-7.68,2.95-2.56.86-5.21,1.28-7.94,1.28-3.42,0-6.45-.9-9.09-2.69-2.65-1.79-4.91-4.14-6.79-7.05-1.2-6.66-2.01-13.32-2.43-19.98-.43-6.66-.64-13.41-.64-20.24Zm70.96,31l1.03,4.35c.34,0,.98-.13,1.92-.38.94-.26,1.92-.6,2.94-1.03,1.03-.42,1.96-.85,2.82-1.28.85-.42,1.28-.81,1.28-1.15,0-.51-.68-.81-2.05-.9-1.37-.08-2.22-.13-2.56-.13h-2.69c-.94,0-1.84.17-2.69.51Z"/>
        </g>
        <g>
          <path class="cls-4" d="m447.52,300.62c0-3.3.81-6.47,2.44-9.49,1.62-3.02,4.16-5.74,7.61-8.14,3.45-2.41,7.8-4.32,13.07-5.74,5.26-1.42,11.63-2.12,19.1-2.12,9.76,0,17.95.83,24.55,2.48,6.61,1.65,11.87,3.89,15.8,6.73,3.92,2.83,6.75,6.14,8.47,9.92,1.72,3.78,2.58,7.74,2.58,11.9,0,2.17-.82,3.59-2.44,4.25-1.63.66-4.64.99-9.05.99-1.15,0-2.68-.07-4.59-.21-1.92-.14-3.79-.38-5.6-.71-1.82-.33-3.35-.75-4.59-1.27-1.25-.52-1.87-1.2-1.87-2.05,0-1.42-.19-3.49-.57-6.23-.39-2.74-1.2-5.45-2.44-8.14-1.25-2.69-3.12-5.05-5.6-7.08-2.49-2.03-5.84-3.05-10.05-3.05-3.83,0-6.94.78-9.34,2.34-2.4,1.56-4.31,3.4-5.74,5.52-1.44,2.13-2.4,4.3-2.87,6.52-.48,2.22-.72,3.99-.72,5.31,0,2.93.33,5.36,1.01,7.29.67,1.94,1.96,3.52,3.88,4.74,1.91,1.23,4.64,2.22,8.19,2.98,3.54.76,8.19,1.51,13.93,2.27,5.36.76,10.48,1.54,15.37,2.34,4.88.81,9.23,2.24,13.07,4.32,4.02,2.17,7.13,4.63,9.34,7.36,2.2,2.74,3.3,5.57,3.3,8.5,0,3.31-1.29,6.61-3.88,9.91-2.59,3.31-6.13,6.28-10.63,8.92-4.5,2.65-9.81,4.79-15.94,6.44-6.13,1.65-12.83,2.48-20.11,2.48-5.74,0-11.54-.61-17.38-1.84-5.84-1.22-10.77-2.83-14.79-4.82-5.17-2.55-8.47-5.64-9.91-9.28-1.43-3.63-2.15-7.15-2.15-10.55,0-.66.38-1.18,1.15-1.56.76-.38,1.72-.68,2.87-.92,1.15-.23,2.39-.38,3.73-.43,1.34-.04,2.49-.07,3.45-.07,1.91,0,3.83.07,5.74.21,1.91.14,3.68.42,5.31.85,1.62.42,2.97.99,4.02,1.7,1.05.71,1.58,1.68,1.58,2.9,0,1.04.19,2.46.57,4.25.38,1.8,1.05,3.54,2.01,5.24.96,1.7,2.34,3.19,4.16,4.46,1.82,1.28,4.26,1.91,7.32,1.91,2.49,0,4.98-.5,7.47-1.49,2.49-.99,4.74-2.17,6.75-3.54,2.01-1.37,3.73-2.81,5.17-4.32,1.43-1.51,2.44-2.78,3.01-3.82.96-1.42,1.48-2.88,1.58-4.39.09-1.51.14-3.02.14-4.53,0-4.15-1.68-7.17-5.03-9.06-3.35-1.89-7.52-3.26-12.5-4.11-4.98-.85-10.39-1.56-16.23-2.12-5.84-.57-11.25-1.61-16.23-3.12-4.98-1.51-9.15-3.85-12.49-7.01-3.35-3.16-5.03-7.77-5.03-13.81Z"/>
          <path class="cls-4" d="m556.66,278.38c.57-1.32,1.62-2.22,3.16-2.69,1.53-.47,3.64-.71,6.32-.71,1.53,0,3.35.14,5.46.43,2.1.28,4.07.69,5.89,1.2,1.82.52,3.35,1.16,4.6,1.91,1.24.76,1.87,1.61,1.87,2.55,0,7.74-.19,15.44-.57,23.08-.39,7.65-.58,15.3-.58,22.94v4.11c5.55-.28,11.01-.54,16.37-.78,5.36-.24,10.82-.36,16.37-.36.38-8.5.67-16.92.86-25.28.19-8.35.29-16.78.29-25.28,0-1.22.96-2.03,2.87-2.41,1.91-.38,3.92-.57,6.03-.57,1.53,0,3.35.12,5.46.35,2.1.24,4.12.59,6.03,1.06,1.91.47,3.54,1.06,4.88,1.77,1.34.71,2.01,1.54,2.01,2.48,0,9.16-.1,18.29-.29,27.4-.19,9.12-.48,18.25-.86,27.41,0,1.61.04,3.59.14,5.95.09,2.36.14,4.77.14,7.22s-.1,4.79-.29,7.01c-.19,2.22-.67,4.04-1.44,5.45-.57,1.13-1.68,1.91-3.3,2.34-1.63.42-3.59.64-5.89.64-1.34,0-3.07-.12-5.17-.35-2.11-.24-4.16-.59-6.18-1.06s-3.69-1.06-5.03-1.77c-1.34-.71-2.01-1.54-2.01-2.48,0-3.31.14-6.63.43-9.99.29-3.35.52-6.73.72-10.13-5.36.19-10.68.43-15.94.71-5.27.28-10.68.52-16.23.71.19,4.16.38,8.26.58,12.32.19,4.06.29,8.17.29,12.32,0,1.32-1,2.2-3.01,2.62-2.01.43-4.07.64-6.18.64-3.64,0-7.47-.49-11.49-1.49-4.02-.99-6.32-2.48-6.89-4.46-.57-1.98-.77-4.04-.57-6.16.19-2.12.29-4.18.29-6.16-.19-4.53-.34-9.01-.43-13.45-.1-4.44-.14-8.92-.14-13.45,0-5.38.09-10.77.29-16.15.19-5.38.29-10.81.29-16.29,0-2.17-.1-4.39-.29-6.66-.19-2.27.19-4.44,1.15-6.51Z"/>
          <path class="cls-4" d="m654.89,363.64c0-5.1.38-10.15,1.15-15.15.76-5,1.53-10.06,2.3-15.15.38-2.27.86-5.24,1.44-8.92.57-3.68,1.53-7.65,2.87-11.9,1.34-4.25,3.06-8.54,5.17-12.89,2.11-4.34,4.83-8.26,8.19-11.76,3.35-3.49,7.37-6.35,12.06-8.57,4.69-2.22,10.2-3.33,16.51-3.33h2.87c.96,0,1.91.09,2.87.28,8.62,1.23,15.51,3.59,20.68,7.08,5.17,3.49,9.05,7.48,11.63,11.97s4.26,9.09,5.03,13.81c.76,4.72,1.15,8.92,1.15,12.61v5.31c0,2.32-.05,4.89-.14,7.72-.1,2.83-.24,5.78-.43,8.85-.19,3.07-.43,5.97-.72,8.71-.29,2.74-.67,5.12-1.15,7.15-.48,2.03-1.01,3.47-1.58,4.32-.96,1.23-2.11,2.06-3.45,2.48-1.34.43-3.35.64-6.03.64-1.54,0-3.3-.14-5.31-.42s-3.98-.66-5.89-1.13c-1.92-.47-3.5-1.06-4.74-1.77-1.25-.71-1.87-1.54-1.87-2.48,0-2.36.19-4.72.57-7.08.38-2.36.76-4.72,1.15-7.08h-5.17c-4.98,0-9.96.07-14.93.21-4.98.14-9.96.4-14.94.78-.19,1.32-.29,2.79-.29,4.39v4.96c0,1.7-.1,3.33-.29,4.89-.19,1.56-.57,2.95-1.15,4.18-.77,1.32-1.87,2.2-3.3,2.62-1.43.42-3.49.64-6.18.64-1.54,0-3.35-.14-5.46-.43-2.11-.28-4.07-.66-5.89-1.13-1.82-.47-3.4-1.08-4.74-1.84-1.34-.75-2.01-1.6-2.01-2.55Zm49.69-25.78h7.61c2.39,0,4.93.05,7.61.14.38-3.02.72-6.09,1.01-9.21.29-3.12.43-6.18.43-9.21,0-5.66-.62-11.31-1.87-16.92-1.25-5.62-4.93-10.84-11.06-15.65-4.79,3.78-8.52,7.77-11.2,11.97-2.68,4.2-4.74,8.47-6.18,12.82-1.44,4.34-2.44,8.74-3.02,13.17-.57,4.44-1.15,8.83-1.72,13.17,3.06-.19,6.08-.28,9.05-.28h9.34Z"/>
          <path class="cls-4" d="m760.29,282.06c0-1.32.91-2.24,2.73-2.76,1.82-.52,3.78-.92,5.89-1.21,4.4-.75,9-1.44,13.78-2.05,4.78-.61,9.57-.92,14.36-.92,5.36,0,10.53.52,15.51,1.56,4.98,1.04,9.43,2.43,13.36,4.18,3.92,1.75,7.04,3.8,9.33,6.16,2.3,2.36,3.45,4.91,3.45,7.65,0,3.02-1.44,5.93-4.31,8.71-2.87,2.79-6.8,5.12-11.78,7.01,10.92,1.89,19.67,4.79,26.28,8.71,6.61,3.92,9.91,8.81,9.91,14.66,0,4.44-1.87,8.81-5.6,13.1-3.73,4.3-8.76,8.12-15.08,11.47-6.32,3.35-13.64,6.04-21.97,8.07-8.33,2.03-17.09,3.04-26.28,3.04-2.11,0-4.79-.09-8.04-.28-3.26-.19-6.46-.54-9.62-1.06-3.16-.52-5.89-1.23-8.19-2.13-2.3-.9-3.45-2.05-3.45-3.47,0-.19.04-.38.15-.57.09-.19.14-.38.14-.57.76-2.64,1.19-5.26,1.29-7.86.09-2.6.33-5.22.72-7.86.57-6.42,1.05-12.82,1.43-19.19.38-6.37.58-12.82.58-19.33,0-7.08-.29-14.16-.86-21.25-.96-.47-1.82-1.04-2.59-1.7-.77-.66-1.15-1.37-1.15-2.13Zm71.52,50.14c0-3.02-1.06-5.45-3.16-7.29-2.11-1.84-4.88-3.23-8.33-4.18-3.45-.94-7.47-1.56-12.06-1.84-4.59-.28-9.48-.42-14.65-.42h-1.44c-.19,6.8-.53,13.57-1,20.32-.48,6.75-1.2,13.53-2.15,20.33,5.55-.28,10.86-1.37,15.94-3.26,5.07-1.89,9.62-4.15,13.64-6.8,4.02-2.64,7.22-5.48,9.62-8.5,2.39-3.02,3.59-5.81,3.59-8.36Zm-39.35-26.34c2.3-.66,4.55-1.46,6.75-2.41,2.2-.94,4.26-1.98,6.18-3.12,1.91-1.13,3.45-2.36,4.6-3.68,1.15-1.32,1.72-2.64,1.72-3.97,0-1.6-.96-3.05-2.87-4.32-1.92-1.28-4.21-2.29-6.89-3.05l-1.72-.14c-1.54,0-2.97.14-4.31.42-1.34.28-2.78.52-4.31.71.38,3.31.57,6.56.57,9.77s.1,6.47.29,9.77Z"/>
          <path class="cls-4" d="m868.57,277.39c.96-1.04,1.96-1.72,3.02-2.06,1.05-.33,2.82-.49,5.31-.49,1.53,0,3.4.14,5.6.42,2.2.28,4.31.71,6.32,1.28,2.01.57,3.73,1.23,5.17,1.98,1.44.76,2.15,1.56,2.15,2.41v.43c-.96,4.72-1.87,9.37-2.73,13.95-.86,4.58-1.29,9.28-1.29,14.09,0,1.42.09,3.66.29,6.73.19,3.07.58,6.51,1.15,10.34.58,3.82,1.39,7.77,2.44,11.83,1.05,4.06,2.49,7.74,4.31,11.05,1.82,3.31,4.07,6.04,6.75,8.21,2.68,2.17,5.93,3.26,9.77,3.26.57,0,1.19-.02,1.87-.07.67-.04,1.01-.16,1.01-.35h-.29c0-.19.38-.3,1.15-.35.76-.05,1.34-.07,1.72-.07l.29.14c5.93-2.17,10.53-5.66,13.78-10.48,3.25-4.82,5.65-10.06,7.18-15.72,1.53-5.66,2.44-11.21,2.73-16.64.29-5.43.43-9.84.43-13.24,0-3.59-.15-7.2-.43-10.84-.29-3.63-.43-7.24-.43-10.84,0-1.7.19-3.21.57-4.53.38-1.32,2.87-1.98,7.47-1.98,3.83,0,7.9.55,12.21,1.63,4.31,1.09,6.84,2.62,7.61,4.6.38,1.42.62,2.88.72,4.39.1,1.51.15,3.02.15,4.53v10.84c0,4.3-.15,8.85-.43,13.67-.29,4.82-.86,9.73-1.73,14.73s-2.15,9.77-3.88,14.3c-1.72,4.53-4.02,8.62-6.89,12.25-2.87,3.64-6.42,6.49-10.63,8.57-3.06,1.51-6.94,2.6-11.63,3.26-4.7.66-9.24.99-13.64.99-7.86,0-15.75-.99-23.7-2.98-7.95-1.98-14.12-4.62-18.53-7.93-3.83-2.83-6.94-6.25-9.34-10.27-2.4-4.01-4.31-8.19-5.74-12.53-1.44-4.34-2.44-8.66-3.01-12.96-.58-4.3-.86-8.14-.86-11.54,0-.85.05-2.22.15-4.11.09-1.89.19-3.99.29-6.3.1-2.31.29-4.74.58-7.29.29-2.55.57-4.93.86-7.15.29-2.22.62-4.15,1-5.81.38-1.65.76-2.76,1.15-3.33Z"/>
        </g>
      </g>
    </g>
  </g>
</svg>